<svg xmlns="http://www.w3.org/2000/svg" xmlns:xlink="http://www.w3.org/1999/xlink" width="43.175" height="43.187" viewBox="0 0 43.175 43.187">
  <defs>
    <filter id="Path_346" x="0" y="7.014" width="23.654" height="29.154" filterUnits="userSpaceOnUse">
      <feOffset dy="3" input="SourceAlpha"/>
      <feGaussianBlur stdDeviation="3" result="blur"/>
      <feFlood flood-opacity="0.161"/>
      <feComposite operator="in" in2="blur"/>
      <feComposite in="SourceGraphic"/>
    </filter>
    <filter id="Path_347" x="1.32" y="0" width="38.048" height="28.256" filterUnits="userSpaceOnUse">
      <feOffset dy="3" input="SourceAlpha"/>
      <feGaussianBlur stdDeviation="3" result="blur-2"/>
      <feFlood flood-opacity="0.161"/>
      <feComposite operator="in" in2="blur-2"/>
      <feComposite in="SourceGraphic"/>
    </filter>
    <filter id="Path_348" x="1.32" y="14.931" width="37.952" height="28.256" filterUnits="userSpaceOnUse">
      <feOffset dy="3" input="SourceAlpha"/>
      <feGaussianBlur stdDeviation="3" result="blur-3"/>
      <feFlood flood-opacity="0.161"/>
      <feComposite operator="in" in2="blur-3"/>
      <feComposite in="SourceGraphic"/>
    </filter>
    <filter id="Path_349" x="12.879" y="10.304" width="30.295" height="29.745" filterUnits="userSpaceOnUse">
      <feOffset dy="3" input="SourceAlpha"/>
      <feGaussianBlur stdDeviation="3" result="blur-4"/>
      <feFlood flood-opacity="0.161"/>
      <feComposite operator="in" in2="blur-4"/>
      <feComposite in="SourceGraphic"/>
    </filter>
  </defs>
  <g id="Group_3829" data-name="Group 3829" transform="translate(-1393.798 -721.818)">
    <g id="google-95" transform="translate(1402.798 727.818)">
      <g transform="matrix(1, 0, 0, 1, -9, -6)" filter="url(#Path_346)">
        <path id="Path_346-2" data-name="Path 346" d="M9.961,295.8a7.328,7.328,0,0,1,.386-2.338l-4.334-3.241a12.449,12.449,0,0,0,0,11.154l4.332-3.247a7.31,7.31,0,0,1-.382-2.328" transform="translate(4.31 -277.2)" fill="#fbbc05"/>
      </g>
      <g transform="matrix(1, 0, 0, 1, -9, -6)" filter="url(#Path_347)">
        <path id="Path_347-2" data-name="Path 347" d="M68.733,16.544A7.548,7.548,0,0,1,73.474,18.2l3.747-3.663a13.027,13.027,0,0,0-20.048,3.866l4.336,3.242a7.575,7.575,0,0,1,7.224-5.1" transform="translate(-46.85 -5.39)" fill="#ea4335"/>
      </g>
      <g transform="matrix(1, 0, 0, 1, -9, -6)" filter="url(#Path_348)">
        <path id="Path_348-2" data-name="Path 348" d="M68.733,610.032a7.578,7.578,0,0,1-7.226-5.1l-4.334,3.241a12.869,12.869,0,0,0,11.56,7.014,12.423,12.423,0,0,0,8.391-3.139l-4.115-3.115a8.1,8.1,0,0,1-4.277,1.1" transform="translate(-46.85 -584)" fill="#34a853"/>
      </g>
      <g transform="matrix(1, 0, 0, 1, -9, -6)" filter="url(#Path_349)">
        <path id="Path_349-2" data-name="Path 349" d="M528.946,423.282a10.267,10.267,0,0,0-.293-2.289h-12v4.866h6.908a5.667,5.667,0,0,1-2.63,3.764l4.114,3.115a12.4,12.4,0,0,0,3.9-9.455" transform="translate(-494.77 -404.69)" fill="#4285f4"/>
      </g>
    </g>
  </g>
</svg>
