<svg xmlns="http://www.w3.org/2000/svg" width="28.901" height="26.244" viewBox="0 0 28.901 26.244">
  <path id="home-home-7" d="M118.278,146.127,104.1,132.866,89.913,146.088a.687.687,0,1,0,.938,1l13.243-12.345,13.244,12.383a.687.687,0,1,0,.94-1ZM118.278,146.127Zm-4.328.272a.687.687,0,0,0-.688.687v10.532h-5.5v-7.327h-7.334v7.327h-5.5V147.086a.688.688,0,0,0-1.375,0v11.906H101.8v-7.327h4.584v7.327h8.251V147.086A.687.687,0,0,0,113.95,146.4ZM113.95,146.4Zm-4.813-9.845h4.125v3.663a.688.688,0,0,0,1.375,0V135.18h-5.5a.687.687,0,1,0,0,1.374ZM109.138,136.554Z" transform="translate(-89.645 -132.798)" fill="#d9a935" stroke="#d9a935" stroke-width="0.1"/>
</svg>
