<svg id="location-27" xmlns="http://www.w3.org/2000/svg" width="14.404" height="17.129" viewBox="0 0 14.404 17.129">
  <path id="Path_16313" data-name="Path 16313" d="M89.05,17.512a.5.5,0,0,1-.282-.086C88.491,17.239,82,12.8,81.852,8.06a7.348,7.348,0,0,1,2.016-5.483,7.217,7.217,0,0,1,10.363,0A7.348,7.348,0,0,1,96.247,8.06c-.145,4.743-6.639,9.179-6.916,9.366A.5.5,0,0,1,89.05,17.512Zm0-16.121a6.243,6.243,0,0,0-4.458,1.887A6.36,6.36,0,0,0,82.86,8.029c.113,3.708,4.958,7.465,6.19,8.362,1.232-.9,6.077-4.653,6.19-8.362a6.36,6.36,0,0,0-1.732-4.751A6.244,6.244,0,0,0,89.05,1.391Z" transform="translate(-81.848 -0.384)" fill="#8e6b17"/>
  <path id="Path_16314" data-name="Path 16314" d="M354.554,269.441a2.692,2.692,0,1,1,2.692-2.692A2.695,2.695,0,0,1,354.554,269.441Zm0-4.376a1.684,1.684,0,1,0,1.685,1.684A1.686,1.686,0,0,0,354.554,265.066Z" transform="translate(-347.342 -259.645)" fill="#8e6b17"/>
</svg>
