<svg xmlns="http://www.w3.org/2000/svg" width="17.967" height="16.684" viewBox="0 0 17.967 16.684">
  <path id="logout-19" d="M80.016,107.292a.634.634,0,0,1-.45-.193.619.619,0,0,1,0-.9l2.759-2.759-2.757-2.759a.635.635,0,0,1,.9-.9l3.209,3.207a.619.619,0,0,1,0,.9L80.466,107.1A.634.634,0,0,1,80.016,107.292Zm-8.983-3.85a.645.645,0,0,1,.643-.643h11.23a.643.643,0,1,1,0,1.285H71.676A.646.646,0,0,1,71.033,103.442ZM65.9,109.858V97.026A1.931,1.931,0,0,1,67.826,95.1h7.059a1.931,1.931,0,0,1,1.926,1.926v2.566a.643.643,0,0,1-1.285,0V97.026a.645.645,0,0,0-.643-.643H67.824a.645.645,0,0,0-.643.643v12.832a.645.645,0,0,0,.643.643h7.059a.645.645,0,0,0,.643-.643v-2.566a.643.643,0,0,1,1.285,0v2.566a1.931,1.931,0,0,1-1.926,1.926H67.824A1.93,1.93,0,0,1,65.9,109.858Z" transform="translate(-65.9 -95.1)" fill="#8e6b17"/>
</svg>
