<svg xmlns="http://www.w3.org/2000/svg" width="17.901" height="15.662" viewBox="0 0 17.901 15.662">
  <path id="video-studio" d="M81.986,126.215l-3.356,2.237a2.222,2.222,0,0,0-.786-1.691,3.908,3.908,0,1,0-4.745-.546H71.045a3.357,3.357,0,1,0-4.676.285,2.226,2.226,0,0,0-1.166,1.952v4.476a2.238,2.238,0,0,0,2.237,2.237h8.952a2.238,2.238,0,0,0,2.237-2.237v-.56l3.356,2.8a1.12,1.12,0,0,0,1.119-1.119v-6.713a1.118,1.118,0,0,0-1.119-1.117Zm-15.663-2.239a2.237,2.237,0,1,1,2.237,2.239A2.237,2.237,0,0,1,66.323,123.976Zm11.187,8.952a1.117,1.117,0,0,1-1.117,1.117H67.44a1.117,1.117,0,0,1-1.117-1.117v-4.476a1.119,1.119,0,0,1,1.117-1.119h8.952a1.119,1.119,0,0,1,1.117,1.119v4.476Zm-1.679-6.708a2.8,2.8,0,1,1,2.8-2.8A2.8,2.8,0,0,1,75.831,126.22Zm6.154,7.826-3.356-2.8v-1.678l3.356-2.239v6.713Z" transform="translate(-65.203 -119.502)" fill="#d9a935"/>
</svg>
