<svg xmlns="http://www.w3.org/2000/svg" width="29.145" height="26.665" viewBox="0 0 29.145 26.665">
  <g id="offer-19" transform="translate(0.5 0.508)">
    <path id="Path_16309" data-name="Path 16309" d="M26.958,56.268,25.9,55.432c-.22-.22-.352-.484-.22-.7l.352-1.275a2.976,2.976,0,0,0-.484-2.595,2.892,2.892,0,0,0-2.463-1.275l-1.407-.132a.774.774,0,0,1-.7-.484l-.484-1.275a2.939,2.939,0,0,0-1.979-1.759,2.806,2.806,0,0,0-2.683.352l-1.187.7a1.127,1.127,0,0,1-.924,0l-1.187-.7a3.574,3.574,0,0,0-2.683-.352,2.939,2.939,0,0,0-1.979,1.759l-.484,1.275a.85.85,0,0,1-.7.484H5.057a3.407,3.407,0,0,0-2.463,1.275,2.989,2.989,0,0,0-.484,2.595L2.463,54.6a.568.568,0,0,1-.22.7l-1.055.924A3.207,3.207,0,0,0,0,58.6a3.047,3.047,0,0,0,1.187,2.331l1.055.836c.22.22.352.484.22.7l-.352,1.275a2.976,2.976,0,0,0,.484,2.595,2.892,2.892,0,0,0,2.463,1.275l1.407.132a.774.774,0,0,1,.7.484L7.652,69.5a2.939,2.939,0,0,0,1.979,1.759,2.9,2.9,0,0,0,1.055.132,2.633,2.633,0,0,0,1.627-.484l1.187-.7a1.127,1.127,0,0,1,.924,0l1.187.7a3.574,3.574,0,0,0,2.683.352A2.939,2.939,0,0,0,20.273,69.5l.484-1.275a.85.85,0,0,1,.7-.484l1.407-.132a3.407,3.407,0,0,0,2.463-1.275,2.962,2.962,0,0,0,.484-2.595l-.352-1.275a.568.568,0,0,1,.22-.7l1.275-.836A3.047,3.047,0,0,0,28.145,58.6,2.691,2.691,0,0,0,26.958,56.268Zm-1.407,2.9-1.055.836a2.98,2.98,0,0,0-1.055,3.166l.352,1.275a.452.452,0,0,1-.132.572.749.749,0,0,1-.7.352l-1.407.132a3.524,3.524,0,0,0-2.815,1.891l-.44,1.275a2.509,2.509,0,0,1-.484.484c-.22.132-.572,0-.836-.132l-1.143-.7a3.557,3.557,0,0,0-3.386,0l-1.187.7a1.594,1.594,0,0,1-.836.132c-.132,0-.352-.132-.484-.484l-.572-1.275A3.155,3.155,0,0,0,6.553,65.5l-1.407-.132a1.077,1.077,0,0,1-.7-.352.8.8,0,0,1-.132-.572l.352-1.275a2.98,2.98,0,0,0-1.055-3.166L2.551,59.17a.777.777,0,0,1-.22-.572.727.727,0,0,1,.22-.572l1.055-.836a2.98,2.98,0,0,0,1.055-3.166l-.22-1.275a.451.451,0,0,1,.132-.572.749.749,0,0,1,.7-.352l1.407-.132A3.523,3.523,0,0,0,9.5,49.8l.484-1.275a.51.51,0,0,1,.484-.484h.22a.681.681,0,0,1,.484.132l1.143.7a3.557,3.557,0,0,0,3.386,0l1.187-.7a1.2,1.2,0,0,1,.836-.132c.132,0,.352.132.484.484l.572,1.275a3.155,3.155,0,0,0,2.815,1.891L23,51.826a1.077,1.077,0,0,1,.7.352.8.8,0,0,1,.132.572l-.352,1.275a2.98,2.98,0,0,0,1.055,3.166l1.055.836a.777.777,0,0,1,.22.572A.66.66,0,0,1,25.551,59.17Z" transform="translate(0 -45.739)" fill="#fff" stroke="#191919" stroke-width="1"/>
    <path id="Path_16310" data-name="Path 16310" d="M347.8,343.53l-7.036,7.036a1.093,1.093,0,0,0,0,1.627,1.287,1.287,0,0,0,.836.352,1.384,1.384,0,0,0,.836-.352l7.036-7.036a1.093,1.093,0,0,0,0-1.627A1.223,1.223,0,0,0,347.8,343.53Z" transform="translate(-331.044 -335.024)" fill="#fff" stroke="#191919" stroke-width="1"/>
    <path id="Path_16311" data-name="Path 16311" d="M342.559,344.159m-1.759,0a1.759,1.759,0,1,0,1.759-1.759A1.759,1.759,0,0,0,340.8,344.159Z" transform="translate(-331.433 -334.246)" fill="#fff" stroke="#191919" stroke-width="1"/>
    <path id="Path_16312" data-name="Path 16312" d="M556.959,558.559m-1.759,0a1.759,1.759,0,1,0,1.759-1.759A1.759,1.759,0,0,0,555.2,558.559Z" transform="translate(-539.94 -542.753)" fill="#fff" stroke="#191919" stroke-width="1"/>
  </g>
</svg>
