<svg xmlns="http://www.w3.org/2000/svg" width="18.302" height="16.723" viewBox="0 0 18.302 16.723">
  <g id="offer-19" transform="translate(0.2 0.204)">
    <path id="Path_16309" data-name="Path 16309" d="M17.146,52.436l-.671-.531c-.14-.14-.224-.308-.14-.448l.224-.811A1.893,1.893,0,0,0,16.251,49a1.84,1.84,0,0,0-1.566-.811l-.9-.084a.492.492,0,0,1-.448-.308l-.308-.811a1.87,1.87,0,0,0-1.259-1.119,1.784,1.784,0,0,0-1.706.224l-.755.448a.717.717,0,0,1-.587,0l-.755-.448a2.273,2.273,0,0,0-1.706-.224,1.87,1.87,0,0,0-1.259,1.119l-.308.811a.541.541,0,0,1-.448.308H3.217a2.167,2.167,0,0,0-1.566.811,1.9,1.9,0,0,0-.308,1.65l.224.811a.361.361,0,0,1-.14.448l-.671.587A2.04,2.04,0,0,0,0,53.918,1.938,1.938,0,0,0,.755,55.4l.671.531c.14.14.224.308.14.448l-.224.811a1.893,1.893,0,0,0,.308,1.65,1.84,1.84,0,0,0,1.566.811l.9.084a.492.492,0,0,1,.448.308l.308.811a1.87,1.87,0,0,0,1.259,1.119,1.847,1.847,0,0,0,.671.084,1.674,1.674,0,0,0,1.035-.308l.755-.448a.717.717,0,0,1,.587,0l.755.448a2.273,2.273,0,0,0,1.706.224,1.87,1.87,0,0,0,1.259-1.119l.308-.811a.541.541,0,0,1,.448-.308l.9-.084a2.167,2.167,0,0,0,1.566-.811,1.884,1.884,0,0,0,.308-1.65L16.2,56.38a.361.361,0,0,1,.14-.448l.811-.531a1.938,1.938,0,0,0,.755-1.482A1.712,1.712,0,0,0,17.146,52.436Zm-.9,1.846-.671.531a1.9,1.9,0,0,0-.671,2.014l.224.811a.287.287,0,0,1-.084.364.477.477,0,0,1-.448.224l-.9.084a2.241,2.241,0,0,0-1.79,1.2l-.28.811a1.6,1.6,0,0,1-.308.308c-.14.084-.364,0-.531-.084l-.727-.448a2.262,2.262,0,0,0-2.154,0l-.755.448a1.014,1.014,0,0,1-.531.084c-.084,0-.224-.084-.308-.308l-.364-.811a2.007,2.007,0,0,0-1.79-1.2l-.9-.084A.685.685,0,0,1,2.825,58a.507.507,0,0,1-.084-.364l.224-.811a1.9,1.9,0,0,0-.671-2.014l-.671-.531a.494.494,0,0,1-.14-.364.463.463,0,0,1,.14-.364l.671-.531a1.9,1.9,0,0,0,.671-2.014l-.14-.811a.287.287,0,0,1,.084-.364.477.477,0,0,1,.448-.224l.9-.084a2.241,2.241,0,0,0,1.79-1.2l.308-.811a.325.325,0,0,1,.308-.308H6.8a.433.433,0,0,1,.308.084l.727.448a2.262,2.262,0,0,0,2.154,0l.755-.448a.762.762,0,0,1,.531-.084c.084,0,.224.084.308.308l.364.811a2.007,2.007,0,0,0,1.79,1.2l.9.084a.685.685,0,0,1,.448.224.507.507,0,0,1,.084.364l-.224.811a1.9,1.9,0,0,0,.671,2.014l.671.531a.494.494,0,0,1,.14.364A.42.42,0,0,1,16.251,54.282Z" transform="translate(0 -45.739)" fill="#8e6b17" stroke="#201f1f" stroke-width="0.4"/>
    <path id="Path_16310" data-name="Path 16310" d="M345.106,343.41l-4.475,4.475a.7.7,0,0,0,0,1.035.818.818,0,0,0,.531.224.88.88,0,0,0,.531-.224l4.475-4.475a.7.7,0,0,0,0-1.035A.778.778,0,0,0,345.106,343.41Z" transform="translate(-334.449 -338)" fill="#8e6b17" stroke="#201f1f" stroke-width="0.4"/>
    <path id="Path_16311" data-name="Path 16311" d="M341.919,343.519m-1.119,0a1.119,1.119,0,1,0,1.119-1.119A1.119,1.119,0,0,0,340.8,343.519Z" transform="translate(-334.842 -337.214)" fill="#8e6b17" stroke="#201f1f" stroke-width="0.4"/>
    <path id="Path_16312" data-name="Path 16312" d="M556.319,557.919m-1.119,0a1.119,1.119,0,1,0,1.119-1.119A1.119,1.119,0,0,0,555.2,557.919Z" transform="translate(-545.494 -547.866)" fill="#8e6b17" stroke="#201f1f" stroke-width="0.4"/>
  </g>
</svg>
