<svg xmlns="http://www.w3.org/2000/svg" width="13.058" height="17.019" viewBox="0 0 13.058 17.019">
  <g id="security-86" transform="translate(-127 -62.005)">
    <path id="Path_16322" data-name="Path 16322" d="M139.612,64.9a19.183,19.183,0,0,1-3.217-1.155,16.321,16.321,0,0,1-2.751-1.739,1.015,1.015,0,0,0-.2,0,15.536,15.536,0,0,1-2.739,1.739,19.223,19.223,0,0,1-3.262,1.155.544.544,0,0,0-.446.535v7.073a5.137,5.137,0,0,0,1.044,3.1,8.017,8.017,0,0,0,2.211,1.984A12.68,12.68,0,0,0,133.406,79a.544.544,0,0,0,.284,0,12.726,12.726,0,0,0,3.133-1.424,8.054,8.054,0,0,0,2.2-1.985,5.126,5.126,0,0,0,1.038-3.083V65.438A.544.544,0,0,0,139.612,64.9Zm-.643,7.608c0,1.593-.912,2.985-2.711,4.137a11.974,11.974,0,0,1-2.715,1.263c-.872-.268-5.456-1.848-5.456-5.4v-6.62a22.558,22.558,0,0,0,3.341-1.266,7.986,7.986,0,0,0,2.116-1.527,9.75,9.75,0,0,0,2.194,1.527,23.067,23.067,0,0,0,3.229,1.265Z" transform="translate(0)" fill="#8e6b17"/>
    <path id="Path_16323" data-name="Path 16323" d="M321.419,378.25a.544.544,0,1,0-.769.769l2.16,2.16a.552.552,0,0,0,.775,0l3.524-3.388a.544.544,0,0,0-.769-.769l-3.135,3.014Z" transform="translate(-190.201 -307.754)" fill="#8e6b17"/>
  </g>
</svg>
