<svg xmlns="http://www.w3.org/2000/svg" width="21.924" height="22.66" viewBox="0 0 21.924 22.66">
  <path id="user-148" d="M31.328,13.295a6.977,6.977,0,0,1-4.235,1.314,7.3,7.3,0,0,1-4.235-1.314c0,.147-.147.147-.294.147a10.088,10.088,0,0,0-4.971,8.47.736.736,0,1,1-1.472,0,10.919,10.919,0,0,1,5.7-9.648A6.949,6.949,0,0,1,19.789,7.3,7.3,7.3,0,1,1,34.4,7.3a6.968,6.968,0,0,1-2.05,4.971,10.883,10.883,0,0,1,5.7,9.648.736.736,0,0,1-1.472,0,9.886,9.886,0,0,0-5.119-8.47c.023-.011-.125-.011-.125-.159Zm-4.235-.147A5.843,5.843,0,1,0,21.25,7.3a5.858,5.858,0,0,0,5.843,5.843Z" transform="translate(-16.12)" fill="#fff"/>
</svg>
