<svg xmlns="http://www.w3.org/2000/svg" width="27.437" height="24.069" viewBox="0 0 27.437 24.069">
  <path id="video-studio" d="M90.457,129.6l-5.05,3.366a3.343,3.343,0,0,0-1.183-2.544,5.88,5.88,0,1,0-7.14-.822H73.994a5.052,5.052,0,1,0-7.036.429,3.349,3.349,0,0,0-1.754,2.937V139.7a3.368,3.368,0,0,0,3.366,3.366h13.47a3.367,3.367,0,0,0,3.366-3.366v-.843l5.05,4.209a1.685,1.685,0,0,0,1.685-1.685v-10.1a1.682,1.682,0,0,0-1.683-1.68Zm-23.568-3.369a3.366,3.366,0,1,1,3.366,3.369A3.366,3.366,0,0,1,66.888,126.234ZM83.722,139.7a1.681,1.681,0,0,1-1.681,1.681H68.569a1.681,1.681,0,0,1-1.681-1.681v-6.735a1.684,1.684,0,0,1,1.681-1.685h13.47a1.683,1.683,0,0,1,1.681,1.685V139.7ZM81.2,129.611a4.218,4.218,0,1,1,4.22-4.218A4.218,4.218,0,0,1,81.2,129.611Zm9.261,11.776-5.05-4.207v-2.525l5.05-3.369v10.1Z" transform="translate(-64.953 -119.252)" fill="#fff" stroke="#191919" stroke-width="0.5"/>
</svg>
